<?xml version="1.0" standalone="no"?>
<!DOCTYPE svg PUBLIC "-//W3C//DTD SVG 20010904//EN"
 "http://www.w3.org/TR/2001/REC-SVG-20010904/DTD/svg10.dtd">
<svg version="1.0" xmlns="http://www.w3.org/2000/svg"
 width="1080.000000pt" height="1080.000000pt" viewBox="0 0 1080.000000 1080.000000"
 preserveAspectRatio="xMidYMid meet">

<g transform="translate(0.000000,1080.000000) scale(0.100000,-0.100000)"
fill="#000000" stroke="none">
<path d="M2160 7087 l0 -44 103 -6 c169 -10 251 -48 288 -133 32 -70 38 -211
39 -781 l0 -543 852 0 852 0 70 42 c42 24 109 79 162 132 76 76 98 106 137
186 62 127 80 206 80 355 -2 393 -243 665 -687 777 -194 48 -253 51 -1098 55
l-798 4 0 -44z m1445 -162 c185 -51 302 -173 357 -372 18 -67 21 -105 21 -268
0 -162 -3 -201 -21 -266 -45 -166 -135 -285 -262 -346 -83 -39 -147 -53 -287
-60 l-113 -6 0 673 0 673 123 -6 c67 -3 149 -13 182 -22z"/>
<path d="M5430 7086 l0 -43 58 -12 c79 -15 152 -52 186 -91 15 -18 56 -90 91
-159 68 -137 87 -179 350 -788 l178 -413 385 0 c361 0 384 1 379 18 -2 9 -96
229 -207 487 -334 778 -338 789 -306 857 31 64 130 98 288 98 l78 0 0 45 0 45
-740 0 -740 0 0 -44z"/>
<path d="M7700 7085 l0 -45 50 0 c71 0 198 -28 245 -53 21 -12 53 -42 70 -65
28 -41 30 -49 29 -130 -1 -114 -16 -155 -261 -707 -108 -242 -202 -455 -210
-473 l-14 -33 91 3 91 3 185 410 c296 658 388 832 483 918 64 58 129 96 194
114 l57 16 0 44 0 43 -505 0 -505 0 0 -45z"/>
<path d="M6696 5268 c-19 -51 -41 -108 -47 -125 -11 -34 -29 -45 -29 -18 0 8
-10 59 -21 115 -18 85 -25 100 -41 100 -14 0 -18 -5 -14 -17 3 -10 19 -83 36
-163 17 -80 33 -154 37 -164 4 -14 22 23 57 116 28 75 54 139 57 143 3 3 30
-58 59 -135 29 -77 54 -139 55 -138 4 4 75 335 75 348 0 5 -7 10 -15 10 -15 0
-20 -15 -52 -160 l-18 -85 -49 130 c-27 72 -50 131 -51 133 -1 2 -19 -39 -39
-90z"/>
<path d="M4612 5342 c-34 -10 -90 -59 -108 -94 -11 -22 -15 -49 -12 -90 5 -61
23 -96 70 -131 28 -21 111 -34 152 -23 40 10 93 63 112 111 49 130 -79 265
-214 227z m125 -52 c100 -61 76 -217 -39 -252 -76 -23 -159 29 -174 107 -9 51
3 84 45 127 34 34 44 38 87 38 31 0 61 -7 81 -20z"/>
<path d="M3680 5170 c0 -163 1 -170 20 -170 18 0 20 7 20 70 l0 70 61 0 c54 0
64 3 90 29 23 23 29 38 29 71 0 33 -6 48 -29 71 -28 27 -34 29 -110 29 l-81 0
0 -170z m161 122 c15 -13 22 -30 22 -52 0 -46 -32 -70 -94 -70 l-49 0 0 70 0
70 49 0 c33 0 56 -6 72 -18z"/>
<path d="M4090 5170 c0 -142 2 -170 15 -170 11 0 15 16 17 67 4 94 21 95 90 4
39 -54 58 -71 76 -71 27 0 30 -4 -40 81 -42 52 -45 59 -23 59 8 0 29 13 47 29
27 24 33 36 33 71 0 35 -6 47 -33 71 -30 27 -39 29 -107 29 l-75 0 0 -170z
m158 120 c28 -26 29 -73 2 -100 -15 -15 -33 -20 -75 -20 l-55 0 0 70 0 70 53
0 c40 0 59 -5 75 -20z"/>
<path d="M5040 5170 c0 -142 2 -170 15 -170 11 0 15 16 17 68 l3 67 62 5 c81
6 118 38 118 101 0 34 -6 46 -33 70 -30 27 -39 29 -107 29 l-75 0 0 -170z
m160 120 c27 -27 26 -74 -2 -100 -16 -15 -35 -20 -75 -20 l-53 0 0 70 0 70 55
0 c42 0 60 -5 75 -20z"/>
<path d="M5439 5273 c101 -237 119 -274 127 -275 4 0 38 69 74 154 88 203 83
188 61 188 -15 0 -32 -31 -77 -136 -45 -105 -60 -132 -66 -118 -5 11 -30 71
-57 134 -38 88 -54 116 -70 118 -20 3 -19 0 8 -65z"/>
<path d="M5910 5170 c0 -144 2 -170 15 -170 13 0 15 26 15 170 0 144 -2 170
-15 170 -13 0 -15 -26 -15 -170z"/>
<path d="M6160 5170 l0 -170 100 0 c82 0 100 3 100 15 0 12 -16 15 -85 15
l-86 0 3 63 3 62 78 3 c59 2 77 6 77 17 0 12 -17 15 -80 15 l-80 0 0 60 0 60
85 0 c69 0 85 3 85 15 0 12 -18 15 -100 15 l-100 0 0 -170z"/>
<path d="M2490 5115 c0 -12 16 -15 85 -15 69 0 85 3 85 15 0 12 -16 15 -85 15
-69 0 -85 -3 -85 -15z"/>
<path d="M7360 5115 c0 -12 16 -15 85 -15 69 0 85 3 85 15 0 12 -16 15 -85 15
-69 0 -85 -3 -85 -15z"/>
<path d="M2590 4638 c-1 -204 -15 -332 -42 -381 -47 -85 -150 -127 -310 -127
l-78 0 0 -45 0 -45 786 0 785 0 -3 43 -3 42 -110 6 c-82 4 -123 12 -162 29
-62 26 -117 83 -133 137 -7 21 -14 133 -17 256 l-5 217 -354 0 -354 0 0 -132z"/>
<path d="M6762 4493 c66 -153 144 -332 172 -398 l52 -120 39 -3 40 -2 52 117
c29 65 109 243 178 396 69 153 125 280 125 282 0 3 -175 5 -389 5 l-389 0 120
-277z"/>
</g>
</svg>
